REM DIRINDEX 1\2,1\4,1\3\5,1\3\6,1\3\7
REM DIRNAME cjc081,folder01,folder02,folder03,folder04,folder05,folder06
TITLE ""
FILE "CD1Track47.mp3" MP3
  TRACK 01 AUDIO
    TITLE "0:"
    INDEX 01 00:00:00
  TRACK 02 AUDIO
    TITLE "5:cjc081_0828"
    INDEX 01 00:00:25
  TRACK 03 AUDIO
    TITLE "0:"
    INDEX 01 00:01:64
  TRACK 04 AUDIO
    TITLE "6:cjc081_0829"
    INDEX 01 00:02:32
  TRACK 05 AUDIO
    TITLE "0:"
    INDEX 01 00:03:49
  TRACK 06 AUDIO
    TITLE "5:cjc081_0830"
    INDEX 01 00:04:19
  TRACK 07 AUDIO
    TITLE "0:"
    INDEX 01 00:05:34
  TRACK 08 AUDIO
    TITLE "6:cjc081_0831"
    INDEX 01 00:06:06
  TRACK 09 AUDIO
    TITLE "0:"
    INDEX 01 00:07:31
  TRACK 10 AUDIO
    TITLE "5:cjc081_0832"
    INDEX 01 00:08:01
  TRACK 11 AUDIO
    TITLE "0:"
    INDEX 01 00:09:22
  TRACK 12 AUDIO
    TITLE "6:cjc081_0833"
    INDEX 01 00:09:73
  TRACK 13 AUDIO
    TITLE "0:"
    INDEX 01 00:12:30
  TRACK 14 AUDIO
    TITLE "5:cjc081_0834"
    INDEX 01 00:12:73
  TRACK 15 AUDIO
    TITLE "0:"
    INDEX 01 00:14:37
  TRACK 16 AUDIO
    TITLE "6:cjc081_0835"
    INDEX 01 00:15:05
  TRACK 17 AUDIO
    TITLE "0:"
    INDEX 01 00:16:16
  TRACK 18 AUDIO
    TITLE "5:cjc081_0836"
    INDEX 01 00:16:55
  TRACK 19 AUDIO
    TITLE "0:"
    INDEX 01 00:17:70
  TRACK 20 AUDIO
    TITLE "6:cjc081_0837"
    INDEX 01 00:18:42
  TRACK 21 AUDIO
    TITLE "0:"
    INDEX 01 00:19:46
  TRACK 22 AUDIO
    TITLE "5:cjc081_0838"
    INDEX 01 00:20:16
  TRACK 23 AUDIO
    TITLE "0:"
    INDEX 01 00:21:27
  TRACK 24 AUDIO
    TITLE "6:cjc081_0839"
    INDEX 01 00:22:01
  TRACK 25 AUDIO
    TITLE "0:"
    INDEX 01 00:23:08
  TRACK 26 AUDIO
    TITLE "5:cjc081_0840"
    INDEX 01 00:23:55
  TRACK 27 AUDIO
    TITLE "0:"
    INDEX 01 00:24:69
  TRACK 28 AUDIO
    TITLE "6:cjc081_0841"
    INDEX 01 00:25:45
  TRACK 29 AUDIO
    TITLE "0:"
    INDEX 01 00:26:67
  TRACK 30 AUDIO
    TITLE "5:cjc081_0842"
    INDEX 01 00:27:36
  TRACK 31 AUDIO
    TITLE "0:"
    INDEX 01 00:28:64
  TRACK 32 AUDIO
    TITLE "6:cjc081_0843"
    INDEX 01 00:29:36
  TRACK 33 AUDIO
    TITLE "0:"
    INDEX 01 00:30:71
  TRACK 34 AUDIO
    TITLE "5:cjc081_0844"
    INDEX 01 00:31:43
  TRACK 35 AUDIO
    TITLE "0:"
    INDEX 01 00:32:66
  TRACK 36 AUDIO
    TITLE "6:cjc081_0845"
    INDEX 01 00:33:40
  TRACK 37 AUDIO
    TITLE "0:"
    INDEX 01 00:37:22
  TRACK 38 AUDIO
    TITLE "5:cjc081_0846"
    INDEX 01 00:37:65
  TRACK 39 AUDIO
    TITLE "0:"
    INDEX 01 00:39:25
  TRACK 40 AUDIO
    TITLE "6:cjc081_0847"
    INDEX 01 00:39:68
  TRACK 41 AUDIO
    TITLE "0:"
    INDEX 01 00:40:72
  TRACK 42 AUDIO
    TITLE "5:cjc081_0848"
    INDEX 01 00:41:42
  TRACK 43 AUDIO
    TITLE "0:"
    INDEX 01 00:42:70
  TRACK 44 AUDIO
    TITLE "6:cjc081_0849"
    INDEX 01 00:43:40
  TRACK 45 AUDIO
    TITLE "0:"
    INDEX 01 00:45:22
  TRACK 46 AUDIO
    TITLE "5:cjc081_0850"
    INDEX 01 00:45:65
  TRACK 47 AUDIO
    TITLE "0:"
    INDEX 01 00:47:15
  TRACK 48 AUDIO
    TITLE "6:cjc081_0851"
    INDEX 01 00:47:68
  TRACK 49 AUDIO
    TITLE "0:"
    INDEX 01 00:49:06
  TRACK 50 AUDIO
    TITLE "5:cjc081_0852"
    INDEX 01 00:49:55
  TRACK 51 AUDIO
    TITLE "0:"
    INDEX 01 00:50:70
  TRACK 52 AUDIO
    TITLE "6:cjc081_0853"
    INDEX 01 00:51:46
  TRACK 53 AUDIO
    TITLE "0:"
    INDEX 01 00:52:53
  TRACK 54 AUDIO
    TITLE "5:cjc081_0854"
    INDEX 01 00:53:25
  TRACK 55 AUDIO
    TITLE "0:"
    INDEX 01 00:54:42
  TRACK 56 AUDIO
    TITLE "6:cjc081_0855"
    INDEX 01 00:55:14
  TRACK 57 AUDIO
    TITLE "0:"
    INDEX 01 00:58:30
  TRACK 58 AUDIO
    TITLE "5:cjc081_0856"
    INDEX 01 00:59:02
  TRACK 59 AUDIO
    TITLE "0:"
    INDEX 01 01:00:21
  TRACK 60 AUDIO
    TITLE "6:cjc081_0857"
    INDEX 01 01:00:72
  TRACK 61 AUDIO
    TITLE "0:"
    INDEX 01 01:02:40
  TRACK 62 AUDIO
    TITLE "7:cjc081_0858"
    INDEX 01 01:04:03
  TRACK 63 AUDIO
    TITLE "0:"
    INDEX 01 01:14:00
